<svg width="961" height="213" viewBox="0 0 961 213" fill="none" xmlns="http://www.w3.org/2000/svg">
<g clip-path="url(#clip0_2033_34)">
<rect y="67.8135" width="124" height="173" rx="2" transform="rotate(-33.1534 0 67.8135)" fill="#F2F2F2"/>
<path d="M23.0462 78.3442L18.5755 81.2646C18.6847 81.8462 18.789 82.3594 18.8884 82.8041C18.9805 83.2377 19.0657 83.612 19.1441 83.927C19.2337 84.2348 19.3201 84.489 19.4032 84.6894C19.4864 84.8899 19.5645 85.046 19.6374 85.1576C19.8416 85.4702 20.0842 85.6222 20.3653 85.6138C20.6392 85.5941 21.0105 85.4312 21.4794 85.1249L21.895 85.7612L17.8262 88.4191L17.4105 87.7828C17.6454 87.5816 17.8339 87.3947 17.9761 87.2223C18.1294 87.0425 18.2402 86.8586 18.3085 86.6707C18.388 86.4754 18.4269 86.2668 18.4253 86.0449C18.4276 85.8046 18.4024 85.5343 18.3497 85.2343L15.5828 71.4901L16.3028 71.0197L26.2725 77.9806C26.9376 78.438 27.489 78.7945 27.9267 79.0501C28.3571 79.2945 28.7236 79.4532 29.0261 79.5263C29.3287 79.5994 29.5987 79.5983 29.8361 79.5228C30.0846 79.4401 30.354 79.3039 30.6442 79.1144L31.0708 79.7674L25.6122 83.3331L25.1856 82.68C25.7773 82.2936 26.1483 81.9716 26.2986 81.7141C26.4489 81.4567 26.4402 81.1996 26.2725 80.9428C26.1996 80.8312 26.1284 80.7344 26.0589 80.6524C25.9821 80.5592 25.8905 80.4677 25.7841 80.378C25.6889 80.2809 25.5696 80.1837 25.4263 80.0862C25.2868 79.9702 25.1161 79.8429 24.914 79.7042L23.0462 78.3442ZM18.3635 80.2086L22.1812 77.7148L17.096 73.9894L18.3635 80.2086Z" fill="#FF0000"/>
<path d="M173.704 135.4L178.175 132.48C178.066 131.898 177.961 131.385 177.862 130.94C177.77 130.506 177.685 130.132 177.606 129.817C177.517 129.509 177.43 129.255 177.347 129.055C177.264 128.854 177.186 128.698 177.113 128.587C176.909 128.274 176.666 128.122 176.385 128.13C176.111 128.15 175.74 128.313 175.271 128.619L174.855 127.983L178.924 125.325L179.34 125.961C179.105 126.163 178.916 126.349 178.774 126.522C178.621 126.702 178.51 126.886 178.442 127.073C178.362 127.269 178.323 127.477 178.325 127.699C178.323 127.94 178.348 128.21 178.401 128.51L181.168 142.254L180.448 142.724L170.478 135.764C169.813 135.306 169.261 134.95 168.824 134.694C168.393 134.45 168.027 134.291 167.724 134.218C167.422 134.145 167.152 134.146 166.914 134.221C166.666 134.304 166.396 134.44 166.106 134.63L165.679 133.977L171.138 130.411L171.565 131.064C170.973 131.451 170.602 131.773 170.452 132.03C170.301 132.287 170.31 132.545 170.478 132.801C170.551 132.913 170.622 133.01 170.691 133.092C170.768 133.185 170.86 133.276 170.966 133.366C171.061 133.463 171.181 133.56 171.324 133.658C171.463 133.774 171.634 133.901 171.836 134.04L173.704 135.4ZM178.387 133.536L174.569 136.029L179.654 139.755L178.387 133.536Z" fill="#FF0000"/>
<path d="M49.4071 82.1232L51.8504 72.079L51.8779 71.2772L51.6968 70.4374L51.387 69.6817L50.8686 68.8881L50.525 68.5029L50.0128 68.1407L49.4761 67.8817L48.9792 67.6836L48.3781 67.4667L47.7923 67.4138L47.0133 67.4872L46.1454 67.7058L45.2928 68.0885L44.5844 68.5512L43.8423 69.3844L43.2751 70.6259L42.9072 72.1726L41.343 71.8879L39.7207 72.0767L38.7239 72.3794L37.9511 72.8842L37.3225 73.4691L36.838 74.134L36.5866 74.7337L36.3995 75.2913L36.2279 76.0131L36.2095 76.5476L36.2955 77.1012L36.4213 77.7158L36.636 78.1851L37.1544 78.9788L37.7219 79.5661L38.4825 80.0273L39.2922 80.2822L49.4071 82.1232Z" fill="#FF0000" stroke="#FF0000"/>
<path d="M31.1036 95.2739L32.3295 89.0422L32.326 88.5405L32.1956 88.0098L31.9894 87.5286L31.6561 87.0185L31.4388 86.7685L31.1201 86.5288L30.7891 86.3531L30.4837 86.2166L30.1149 86.0656L29.7594 86.0178L29.2903 86.0443L28.771 86.1596L28.2652 86.378L27.8485 86.6502L27.4206 87.1537L27.1088 87.9173L26.925 88.8771L25.9723 88.6597L24.9961 88.7374L24.4011 88.9021L23.9465 89.1991L23.5811 89.5497L23.3048 89.9542L23.1678 90.3236L23.0687 90.6683L22.983 91.1163L22.9852 91.4507L23.051 91.7996L23.1425 92.1878L23.284 92.4873L23.6173 92.9975L23.975 93.3797L24.4464 93.6876L24.9423 93.8676L31.1036 95.2739Z" fill="#FF0000" stroke="#FF0000"/>
<path d="M165.647 118.471L164.421 124.702L164.424 125.204L164.555 125.735L164.761 126.216L165.094 126.726L165.311 126.976L165.63 127.216L165.961 127.392L166.267 127.528L166.635 127.679L166.991 127.727L167.46 127.7L167.979 127.585L168.485 127.367L168.902 127.094L169.33 126.591L169.642 125.827L169.825 124.867L170.778 125.085L171.754 125.007L172.349 124.843L172.804 124.546L173.169 124.195L173.445 123.79L173.582 123.421L173.682 123.076L173.767 122.628L173.765 122.294L173.699 121.945L173.608 121.557L173.466 121.257L173.133 120.747L172.775 120.365L172.304 120.057L171.808 119.877L165.647 118.471Z" fill="#FF0000" stroke="#FF0000"/>
<path d="M147.343 131.621L144.9 141.666L144.872 142.467L145.053 143.307L145.363 144.063L145.882 144.856L146.225 145.242L146.737 145.604L147.274 145.863L147.771 146.061L148.372 146.278L148.958 146.331L149.737 146.257L150.605 146.039L151.457 145.656L152.166 145.193L152.908 144.36L153.475 143.119L153.843 141.572L155.407 141.857L157.03 141.668L158.026 141.365L158.799 140.86L159.428 140.276L159.912 139.611L160.164 139.011L160.351 138.453L160.522 137.732L160.541 137.197L160.455 136.643L160.329 136.029L160.114 135.559L159.596 134.766L159.028 134.179L158.268 133.717L157.458 133.462L147.343 131.621Z" fill="#FF0000" stroke="#FF0000"/>
<path d="M90.2882 92.532L90.3386 91.5565L89.9546 90.1793L89.5286 89.0008L89.0424 87.8618L88.4174 86.6419L89.4276 87.2674L90.2571 88.0109L91.3429 89.0153L92.3083 90.0985L93.2134 91.221L93.8507 89.4337L94.0426 88.2801L94.0957 87.0458L94.1096 85.7514L93.9456 84.3161L93.5434 82.7794L92.3355 80.1409L90.5336 77.1192L88.6448 74.7541L86.1985 72.3247L83.5084 70.3116L80.8155 68.5575L76.7693 66.5734L74.4267 65.6186L72.1416 64.8834L71.8967 67.2713L71.8899 69.7607L72.2615 74.1451L72.846 77.2766L73.7288 80.4701L75.0306 83.6471L76.4375 86.3271L78.4804 89.1914L80.4713 91.3183L81.7562 92.3642L82.905 93.0705L83.9754 93.6566L85.1271 94.1039L86.2605 94.3918L88.0931 94.5658L87.3896 93.2258L86.8249 91.9666L86.2812 90.608L85.9939 89.5103L85.8271 88.334L86.693 89.3964L87.4805 90.3387L88.3884 91.2024L89.435 92.1468L90.2882 92.532Z" fill="#A6E1E7"/>
<path d="M96.3657 91.0471L96.7846 91.0305L96.0694 83.3572L96.121 80.4101L96.7175 76.85L98.079 72.6188L98.0746 71.1649L97.7382 69.0711L97.0376 67.4723L94.835 64.6266L89.9927 58.7925L87.9325 66.8219L87.5515 68.8702L87.5083 71.0407L87.811 72.5567L88.0464 72.917L88.3028 73.178L88.6377 73.5591L89.781 74.7831L90.6077 75.7855L93.1971 79.7495L93.822 80.9693L94.4834 82.5081L95.163 84.2064L95.6802 86.1822L96.074 88.4955L96.3657 91.0471Z" fill="#A6E1E7"/>
<path d="M100.385 89.9639L99.5976 89.0216L98.5775 87.46L97.8377 85.8011L97.2813 83.7652L97.1831 81.7729L97.2656 79.6625L97.631 77.1959L98.3845 73.876L99.3468 71.5336L100.246 69.4895L101.811 66.7536L103.797 63.7423L105.697 61.3875L107.091 59.7058L108.744 58.0262L110.053 56.7422L110.524 57.4629L110.914 58.3224L111.418 59.6209L112.174 61.6982L112.615 63.295L113.169 65.5897L113.547 67.4847L113.907 69.2203L114.066 71.1733L114.282 73.3458L114.304 74.9592L114.224 76.8107L114.045 78.6415L113.604 80.7291L113.084 82.6966L112.507 84.4446L111.731 86.1511L110.696 87.8556L109.784 89.2225L108.836 90.2704L107.872 90.9L106.709 91.4882L106.531 91.3474L107.263 90.0985L107.777 88.6488L108.092 87.1576L108.019 86.5198L107.248 87.7085L106.303 88.4976L105.258 89.266L104.173 89.9743L103.712 90.1897L103.595 90.0095L103.976 87.9612L104.032 86.468L104.043 85.4325L103.855 84.3555L103.147 85.2461L102.717 86.2981L102.329 87.1514L101.74 88.2222L101.171 89.1935L100.765 89.8873L100.385 89.9639Z" fill="#A6E1E7"/>
<path d="M86.803 97.722L86.7539 96.7259L85.0866 96.0155L82.7104 94.4829L80.6326 93.0125L78.9345 91.4654L77.0612 89.5186L75.5885 87.3957L74.1397 84.9146L73.3998 83.2557L72.7511 82.3941L71.584 81.5284L69.8775 80.758L68.1473 80.3459L66.1368 80.0311L63.6682 79.6728L61.519 79.2772L60.2441 79.1674L59.0897 78.979L59.95 80.5592L60.9645 82.6385L62.0393 84.6785L62.8996 86.2587L63.9169 88.0792L64.8977 89.5807L65.7062 90.4236L66.7766 91.0097L68.0067 91.5772L68.7212 91.8816L69.8574 91.9106L71.0721 92.0598L72.525 92.3104L74.0773 92.5817L75.5484 92.9917L77.0979 93.5219L79.0608 94.5533L80.4479 95.361L81.9736 96.2495L83.1435 96.8563L84.4549 97.2851L85.4496 97.4922L86.803 97.722Z" fill="#A6E1E7"/>
<path d="M77.5585 106.331L79.2075 106.882L81.3385 107.118L82.8543 107.071L82.4299 107.605L80.5835 108.726L77.9936 109.303L74.6321 109.614L71.3467 109.189L68.4018 108.628L65.0645 107.466L62.2666 106.209L59.393 104.573L57.3544 103.163L54.8031 101.23L52.906 99.6418L51.2078 98.0948L49.9833 97.0095L49.3528 96.3074L51.5368 95.3092L56.1586 93.8325L59.3767 93.1015L63.8304 92.4201L67.281 92.3083L69.6501 92.6459L72.9145 93.1698L75.8567 93.99L77.6234 94.7211L79.1309 95.4501L80.6147 96.5374L82.1349 97.9436L83.5473 100.106L84.0181 100.827L82.6591 101.114L80.4231 101.375L78.6061 101.62L77.4068 101.889L79.0923 102.759C79.7284 102.943 81.0084 103.324 81.0397 103.372C81.079 103.432 82.8905 103.705 82.9297 103.765C82.9611 103.813 82.0976 104.509 81.6619 104.851L80.0985 105.615L78.5798 105.921L77.5585 106.331Z" fill="#A6E1E7"/>
<path d="M73.0659 110.637C72.9863 110.621 71.4794 110.445 70.736 110.36L68.2492 109.842L65.7049 109.105L63.8387 108.353L62.5301 107.665L61.5746 107.518L60.2759 107.767L58.9534 108.373L57.5287 109.218L55.297 110.933L53.3666 112.451L51.4571 113.87L49.9694 115.013L51.5791 115.504L53.1889 115.995L54.7595 116.426L56.508 116.997L58.4554 117.61L60.1072 117.902L62.0392 118.097L63.3954 118.068L63.8745 118.012L64.1575 117.656L64.4825 117.101L65.1689 116.31L65.7741 115.657L66.602 114.688L67.3066 114.056L68.5114 113.269L69.8969 112.364L70.9813 111.656L71.9031 111.225L73.0659 110.637Z" fill="#A6E1E7"/>
<path d="M85.5135 124.956L83.9025 126.437L82.517 127.342L80.7098 128.523L79.1463 129.287L76.8236 130.204L75.2839 130.61L73.9039 130.998L72.6262 131.147L71.9763 132.257L71.3235 133.626L70.7072 135.314L70.2899 137.043L69.8907 138.932L69.4762 140.402L69.1821 141.794L68.867 143.285L68.7619 143.782L70.5846 143.02L72.7266 142.221L74.8477 141.521L76.6101 140.798L77.7911 140.369L78.6737 139.878L79.758 139.17L80.7428 138.441L81.61 137.532L82.0764 136.799L82.2263 135.844L82.1716 135.366L82.3634 134.212L82.474 133.197L82.7261 132.004L82.9782 130.811L83.411 129.5L83.9643 128.111L84.5358 126.88L85.0443 125.948L85.5135 124.956Z" fill="#A6E1E7"/>
<path d="M98.2176 122.827L99.1045 123.79L100.085 125.292L100.804 127.05L101.125 128.726L101.242 130.878L101.125 132.41L100.931 133.823L100.555 135.353L100.06 136.962L99.4826 138.71L98.6884 140.257L97.4879 142.498L96.1515 144.399L94.5349 146.398L92.7586 148.415L90.5634 150.449L88.7324 151.988L87.3862 152.953L86.4223 153.583L85.8786 152.224L85.1681 149.689L84.6538 147.454L84.0637 144.841L83.7876 142.707L83.6501 140.655L83.5939 138.464L83.6974 136.254L84.0446 133.628L84.672 130.904L85.2673 129.316L86.0251 127.45L86.8586 125.963L87.9722 124.379L88.9809 123.291L90.4084 122.187L91.6734 121.361L92.1918 121.365L91.8248 122.119L91.4368 122.972L90.8807 124.621L90.5684 125.853L90.5601 126.63L91.2885 125.64L92.0562 124.71L92.9233 123.801L94.0076 123.092L94.7305 122.62L95.0499 122.583L95.0261 122.941L94.8371 123.836L94.7265 124.851L94.6551 125.926L94.7197 127.34L94.787 128.496L95.437 127.386L96.2495 125.998L96.8602 124.828L97.5494 123.778L98.2176 122.827Z" fill="#A6E1E7"/>
<path d="M110.79 118.128L113.18 118.366L114.968 118.998L116.614 119.808L118.197 120.916L119.6 122.142L120.761 123.525L122.038 125.348L122.919 126.829L123.641 128.328L124.595 130.447L125.462 133.222L125.88 135.177L126.31 137.809L126.529 139.723L126.658 142.552L126.612 144.982L126.409 147.171L126.343 147.728L125.647 147.583L123.781 146.831L121.797 145.899L119.834 144.868L117.853 143.677L116.131 142.488L114.668 141.301L113.166 140.054L111.764 138.828L110.286 137.223L109.064 135.879L108.044 134.318L107.181 132.996L106.281 131.356L105.505 129.378L105.103 127.841L104.881 126.187L104.979 124.495L105.255 122.943L105.669 121.473L106.81 122.956L107.992 124.24L109.317 125.346L110.565 126.073L109.469 124.132L108.925 122.774L108.599 121.616L108.335 120.16L109.683 120.908L110.612 121.672L111.578 122.755L113.035 124.459L112.931 122.985L112.411 121.268L111.689 119.768L110.79 118.128Z" fill="#A6E1E7"/>
<path d="M116.028 105.623L117.095 104.755L118.739 103.852L120.161 103.266L122.4 102.747L124.235 102.662L125.851 102.635L127.324 102.786L128.738 102.976L130.191 103.227L131.602 103.676L133.727 104.43L135.455 105.101L136.983 105.731L138.807 106.682L140.55 107.771L141.838 108.558L143.026 109.324L144.371 110.331L145.873 111.578L146.841 112.402L147.966 113.466L146.56 114.471L145.015 115.394L142.83 116.393L140.688 117.192L136.567 118.513L133.671 118.948L130.697 119.263L128.723 119.267L126.691 119.052L124.78 118.758L123.388 118.468L121.639 117.896L119.872 117.165L118.624 116.438L117.397 115.612L116.489 114.748L115.701 113.806L115.074 112.845L114.666 111.826L115.944 111.677L117.8 111.493L119.677 111.209L121.253 111.122L120.819 110.72L119.351 110.051L118.238 109.664L116.888 109.175L115.953 108.929L117.058 108.121L118.242 107.433L119.384 106.945L120.424 106.694L121.442 106.543L120.848 106.16L120.052 105.994L119.097 105.847L118.021 105.779L117.183 105.812L116.185 105.863L116.028 105.623Z" fill="#A6E1E7"/>
<path d="M120.702 101.199L122.043 100.752L123.525 100.127L125.431 98.9668L127.48 97.6289L128.829 96.4049L130.361 94.804L131.129 93.8741L131.897 92.9442L132.303 92.2504L132.604 92.0537L133.583 91.8424L135.099 91.7948L136.594 91.8466L138.586 92.0019L140.437 92.3354L141.691 92.5445L143.123 92.8945L144.576 93.1451L145.968 93.4351L145.062 94.2842L144.014 95.3115L142.906 96.378L141.918 97.3659L140.849 98.4926L140.042 99.3624L139.217 100.073L138.212 100.901L137.187 101.57L136.025 102.158L135.103 102.589L134.283 102.782L133.328 102.635L132.433 102.448L131.359 102.121L130.205 101.933L128.852 101.703L127.776 101.634L126.401 101.504L125.027 101.373L123.671 101.402L122.613 101.494L121.757 101.367L120.702 101.199Z" fill="#A6E1E7"/>
<path d="M83.5321 120.081L84.8098 119.932L86.3312 119.367L87.8555 118.542L88.0096 119.041L87.4956 120.491L86.7826 121.9L85.6507 123.324L83.8169 125.122L81.4466 126.756L78.5971 128.446L75.9941 129.461L73.5536 130.198L69.7962 131.025L66.0234 131.433L62.9131 131.408L59.2873 131.12L57.4156 130.886L56.6198 130.72L57.2936 129.252L58.3735 127.09L59.7575 124.472L61.0154 122.45L62.3098 120.748L64.1464 118.691L65.7182 117.151L68.272 115.14L71.0613 113.489L74.3871 112.002L76.4662 111.501L78.5634 111.159L79.8201 111.109L81.8124 111.265L83.3437 111.635L82.2173 112.542L81.1092 113.609L80.1609 114.657L79.9956 115.193L81.8785 114.392L83.5176 114.007L84.9522 114.098L83.8651 115.065L82.5973 116.15L81.8506 116.981L81.1012 118.07L82.4812 117.683L84.1231 117.039L85.5058 116.393L86.5271 115.983L86.2778 116.917L85.4681 118.045L84.5197 119.093L83.5321 120.081Z" fill="#A6E1E7"/>
<path d="M103.382 120.997L102.08 121.504L102.222 125.01L102.439 128.896L102.367 131.942L101.944 134.189L101.361 136.455L100.643 138.381L99.9296 139.789L99.5626 140.543L99.5963 141.121L99.7869 141.939L100.095 142.937L100.443 143.996L101.677 146.017L103.153 147.881L104.51 149.565L105.711 151.008L106.734 152.311L108.071 154.094L108.674 151.729L109.404 148.767L109.908 146.382L110.451 144.056L110.61 142.324L110.485 140.949L110.258 139.812L109.669 138.911L108.644 137.867L107.778 136.805L106.915 135.484L105.976 133.783L105.354 132.305L104.792 130.786L104.193 128.949L103.909 127.593L103.624 126.236L103.387 124.163L103.383 122.709L103.382 120.997Z" fill="#A6E1E7"/>
<path d="M111.996 115.37C112.013 115.29 112.26 114.94 112.381 114.775L115.019 116.051L117.579 117.207L120.814 118.607L122.683 119.1L125.667 119.721C126.125 119.764 127.061 119.855 127.141 119.872C127.221 119.889 128.038 119.886 128.437 119.882L129.848 120.332L131.334 121.16L132.462 121.966L133.645 123.25L134.427 124.71L135.637 127.09L136.555 128.889L137.962 131.569L139.194 133.85L137.502 133.498L135.591 133.203L133.84 132.891L131.95 132.497L130.121 132.064L128.649 131.654L127.042 130.905L125.716 130.057L125.122 129.674L124.729 129.074L124.457 128.394L124.149 127.396L123.563 126.236L122.857 125.155L121.68 123.353L120.835 122.192L119.713 120.868L118.687 119.824L117.481 118.899L116.275 117.973L115.108 117.107L113.603 116.119L111.996 115.37Z" fill="#A6E1E7"/>
<path d="M110.692 93.7705L110.926 92.4181L111.524 90.5708L112.683 88.5287L113.676 87.023L115.169 85.3621L116.961 83.7632L118.569 82.5413L121.178 81.0087L124.025 79.5776L127.007 78.4862L129.246 77.9664L131.723 77.548L134.278 77.2498L136.493 77.0882L138.706 77.1856L138.49 78.6975L137.973 80.4061L137.05 82.8085L136.132 84.6932L135.092 86.9154L133.753 89.0755L132.699 90.6205L131.001 92.7578L129.105 94.8537L126.367 97.2416L123.355 99.2091L120.65 100.462L118.071 101.119L115.838 101.121L114.903 100.874L115.927 100.205L116.993 99.3375L117.923 98.1301L118.191 97.3555L116.347 98.2171L115.07 98.3662L113.771 98.6147L113.433 98.4925L113.858 97.9582L116.032 96.0238L117.122 94.7978L117.426 94.3422L116.368 94.4333L114.786 95.038L113.042 95.9203L112.078 96.5499L112.309 95.4564L113.261 94.1495L114.248 93.1616L115.275 92.2338L114.717 92.1696L113.178 92.5755L112.036 93.0643L110.692 93.7705Z" fill="#A6E1E7"/>
<path d="M113.46 84.8505L113.956 83.2413L114.578 81.0356L114.919 78.9273L115.12 76.9971L115.139 75.1849L115.096 73.671L114.962 73.0724L115.408 72.4387L116.136 71.4487L117.223 70.4815L119.091 69.2617L121.178 67.9839L124.127 66.3146L125.992 65.3536L126.935 64.8234L126.8 66.1966L126.516 68.5244L126.193 70.7922L125.932 72.7618L125.572 74.7107L125.116 76.3799L124.562 77.7696L124.216 78.424L123.735 78.7388L123.153 79.0329L122.153 79.3436L121.532 79.5776L120.631 79.909L119.749 80.3998L118.526 81.0274L117.321 81.8143L116.538 82.3259L115.472 83.1937L114.848 83.6866L114.144 84.3182L113.46 84.8505Z" fill="#A6E1E7"/>
<path d="M97.2961 93.524L94.6357 94.3193L93.4337 94.8474L92.1294 95.6137L90.9639 96.4608L89.9972 97.3493L88.5614 99.2298L87.2012 101.489L86.4168 103.972L86.0934 106.24L86.2253 108.81L86.664 110.666L87.2469 112.085L88.2669 113.646L89.5644 115.37L90.789 116.455L92.134 117.461L93.8195 118.331L95.6675 118.923L97.8166 119.319L100.369 119.28L102.747 118.841L104.488 118.217L106.253 117.236L107.922 115.974L109.373 114.512L110.851 112.433L111.852 110.15L112.354 108.024L112.494 106.133L112.375 104.24L112.054 102.564L111.492 101.046L110.435 99.1656L109.415 97.604L108.35 96.5002L106.767 95.3922L104.527 94.1992L102.32 93.5841L99.7913 93.2652L97.2961 93.524Z" fill="#E2F8F0"/>
<path d="M90.2882 92.532L90.3386 91.5565L89.9546 90.1793L89.5286 89.0008L89.0424 87.8618L88.4174 86.6419L89.4276 87.2674L90.2571 88.0109L91.3429 89.0153L92.3083 90.0985L93.2134 91.221L93.8507 89.4337L94.0426 88.2801L94.0957 87.0458L94.1096 85.7514L93.9456 84.3161L93.5434 82.7794L92.3355 80.1409L90.5336 77.1192L88.6448 74.7541L86.1985 72.3247L83.5084 70.3116L80.8155 68.5575L76.7693 66.5734L74.4267 65.6186L72.1416 64.8834L71.8967 67.2713L71.8899 69.7607L72.2615 74.1451L72.846 77.2766L73.7288 80.4701L75.0306 83.6471L76.4375 86.3271L78.4804 89.1914L80.4713 91.3183L81.7562 92.3642L82.905 93.0705L83.9754 93.6566L85.1271 94.1039L86.2605 94.3918L88.0931 94.5658L87.3896 93.2258L86.8249 91.9666L86.2812 90.608L85.9939 89.5103L85.8271 88.334L86.693 89.3964L87.4805 90.3387L88.3884 91.2024L89.435 92.1468L90.2882 92.532Z" stroke="black"/>
<path d="M96.3657 91.0471L96.7846 91.0305L96.0694 83.3572L96.121 80.4101L96.7175 76.85L98.079 72.6188L98.0746 71.1649L97.7382 69.0711L97.0376 67.4723L94.835 64.6266L89.9927 58.7925L87.9325 66.8219L87.5515 68.8702L87.5083 71.0407L87.811 72.5567L88.0464 72.917L88.3028 73.178L88.6377 73.5591L89.781 74.7831L90.6077 75.7855L93.1971 79.7495L93.822 80.9693L94.4834 82.5081L95.163 84.2064L95.6802 86.1822L96.074 88.4955L96.3657 91.0471Z" stroke="black"/>
<path d="M100.385 89.9639L99.5976 89.0216L98.5775 87.46L97.8377 85.8011L97.2813 83.7652L97.1831 81.7729L97.2656 79.6625L97.631 77.1959L98.3845 73.876L99.3468 71.5336L100.246 69.4895L101.811 66.7536L103.797 63.7423L105.697 61.3875L107.091 59.7058L108.744 58.0262L110.053 56.7422L110.524 57.4629L110.914 58.3224L111.418 59.6209L112.174 61.6982L112.615 63.295L113.169 65.5897L113.547 67.4847L113.907 69.2203L114.066 71.1733L114.282 73.3458L114.304 74.9592L114.224 76.8107L114.045 78.6415L113.604 80.7291L113.084 82.6966L112.507 84.4446L111.731 86.1511L110.696 87.8556L109.784 89.2225L108.836 90.2704L107.872 90.9L106.709 91.4882L106.531 91.3474L107.263 90.0985L107.777 88.6488L108.092 87.1576L108.019 86.5198L107.248 87.7085L106.303 88.4976L105.258 89.266L104.173 89.9743L103.712 90.1897L103.595 90.0095L103.976 87.9612L104.032 86.468L104.043 85.4325L103.855 84.3555L103.147 85.2461L102.717 86.2981L102.329 87.1514L101.74 88.2222L101.171 89.1935L100.765 89.8873L100.385 89.9639Z" stroke="black"/>
<path d="M86.803 97.722L86.7539 96.7259L85.0866 96.0155L82.7104 94.4829L80.6326 93.0125L78.9345 91.4654L77.0612 89.5186L75.5885 87.3957L74.1397 84.9146L73.3998 83.2557L72.7511 82.3941L71.584 81.5284L69.8775 80.758L68.1473 80.3459L66.1368 80.0311L63.6682 79.6728L61.519 79.2772L60.2441 79.1674L59.0897 78.979L59.95 80.5592L60.9645 82.6385L62.0393 84.6785L62.8996 86.2587L63.9169 88.0792L64.8977 89.5807L65.7062 90.4236L66.7766 91.0097L68.0067 91.5772L68.7212 91.8816L69.8574 91.9106L71.0721 92.0598L72.525 92.3104L74.0773 92.5817L75.5484 92.9917L77.0979 93.5219L79.0608 94.5533L80.4479 95.361L81.9736 96.2495L83.1435 96.8563L84.4549 97.2851L85.4496 97.4922L86.803 97.722Z" stroke="black"/>
<path d="M77.5585 106.331L79.2075 106.882L81.3385 107.118L82.8543 107.071L82.4299 107.605L80.5835 108.726L77.9936 109.303L74.6321 109.614L71.3467 109.189L68.4018 108.628L65.0645 107.466L62.2666 106.209L59.393 104.573L57.3544 103.163L54.8031 101.23L52.906 99.6418L51.2078 98.0948L49.9833 97.0095L49.3528 96.3074L51.5368 95.3092L56.1586 93.8325L59.3767 93.1015L63.8304 92.4201L67.281 92.3083L69.6501 92.6459L72.9145 93.1698L75.8567 93.99L77.6234 94.7211L79.1309 95.4501L80.6147 96.5374L82.1349 97.9436L83.5473 100.106L84.0181 100.827L82.6591 101.114L80.4231 101.375L78.6061 101.62L77.4068 101.889L79.0923 102.759C79.7284 102.943 81.0084 103.324 81.0397 103.372C81.079 103.432 82.8905 103.705 82.9297 103.765C82.9611 103.813 82.0976 104.509 81.6619 104.851L80.0985 105.615L78.5798 105.921L77.5585 106.331Z" stroke="black"/>
<path d="M73.0659 110.637C72.9863 110.621 71.4794 110.445 70.736 110.36L68.2492 109.842L65.7049 109.105L63.8387 108.353L62.5301 107.665L61.5746 107.518L60.2759 107.767L58.9534 108.373L57.5287 109.218L55.297 110.933L53.3666 112.451L51.4571 113.87L49.9694 115.013L51.5791 115.504L53.1889 115.995L54.7595 116.426L56.508 116.997L58.4554 117.61L60.1072 117.902L62.0392 118.097L63.3954 118.068L63.8745 118.012L64.1575 117.656L64.4825 117.101L65.1689 116.31L65.7741 115.657L66.602 114.688L67.3066 114.056L68.5114 113.269L69.8969 112.364L70.9813 111.656L71.9031 111.225L73.0659 110.637Z" stroke="black"/>
<path d="M85.5135 124.956L83.9025 126.437L82.517 127.342L80.7098 128.523L79.1463 129.287L76.8236 130.204L75.2839 130.61L73.9039 130.998L72.6262 131.147L71.9763 132.257L71.3235 133.626L70.7072 135.314L70.2899 137.043L69.8907 138.932L69.4762 140.402L69.1821 141.794L68.867 143.285L68.7619 143.782L70.5846 143.02L72.7266 142.221L74.8477 141.521L76.6101 140.798L77.7911 140.369L78.6737 139.878L79.758 139.17L80.7428 138.441L81.61 137.532L82.0764 136.799L82.2263 135.844L82.1716 135.366L82.3634 134.212L82.474 133.197L82.7261 132.004L82.9782 130.811L83.411 129.5L83.9643 128.111L84.5358 126.88L85.0443 125.948L85.5135 124.956Z" stroke="black"/>
<path d="M98.2176 122.827L99.1045 123.79L100.085 125.292L100.804 127.05L101.125 128.726L101.242 130.878L101.125 132.41L100.931 133.823L100.555 135.353L100.06 136.962L99.4826 138.71L98.6884 140.257L97.4879 142.498L96.1515 144.399L94.5349 146.398L92.7586 148.415L90.5634 150.449L88.7324 151.988L87.3862 152.953L86.4223 153.583L85.8786 152.224L85.1681 149.689L84.6538 147.454L84.0637 144.841L83.7876 142.707L83.6501 140.655L83.5939 138.464L83.6974 136.254L84.0446 133.628L84.672 130.904L85.2673 129.316L86.0251 127.45L86.8586 125.963L87.9722 124.379L88.9809 123.291L90.4084 122.187L91.6734 121.361L92.1918 121.365L91.8248 122.119L91.4368 122.972L90.8807 124.621L90.5684 125.853L90.5601 126.63L91.2885 125.64L92.0562 124.71L92.9233 123.801L94.0076 123.092L94.7305 122.62L95.0499 122.583L95.0261 122.941L94.8371 123.836L94.7265 124.851L94.6551 125.926L94.7197 127.34L94.787 128.496L95.437 127.386L96.2495 125.998L96.8602 124.828L97.5494 123.778L98.2176 122.827Z" stroke="black"/>
<path d="M110.79 118.128L113.18 118.366L114.968 118.998L116.614 119.808L118.197 120.916L119.6 122.142L120.761 123.525L122.038 125.348L122.919 126.829L123.641 128.328L124.595 130.447L125.462 133.222L125.88 135.177L126.31 137.809L126.529 139.723L126.658 142.552L126.612 144.982L126.409 147.171L126.343 147.728L125.647 147.583L123.781 146.831L121.797 145.899L119.834 144.868L117.853 143.677L116.131 142.488L114.668 141.301L113.166 140.054L111.764 138.828L110.286 137.223L109.064 135.879L108.044 134.318L107.181 132.996L106.281 131.356L105.505 129.378L105.103 127.841L104.881 126.187L104.979 124.495L105.255 122.943L105.669 121.473L106.81 122.956L107.992 124.24L109.317 125.346L110.565 126.073L109.469 124.132L108.925 122.774L108.599 121.616L108.335 120.16L109.683 120.908L110.612 121.672L111.578 122.755L113.035 124.459L112.931 122.985L112.411 121.268L111.689 119.768L110.79 118.128Z" stroke="black"/>
<path d="M116.028 105.623L117.095 104.755L118.739 103.852L120.161 103.266L122.4 102.747L124.235 102.662L125.851 102.635L127.324 102.786L128.738 102.976L130.191 103.227L131.602 103.676L133.727 104.43L135.455 105.101L136.983 105.731L138.807 106.682L140.55 107.771L141.838 108.558L143.026 109.324L144.371 110.331L145.873 111.578L146.841 112.402L147.966 113.466L146.56 114.471L145.015 115.394L142.83 116.393L140.688 117.192L136.567 118.513L133.671 118.948L130.697 119.263L128.723 119.267L126.691 119.052L124.78 118.758L123.388 118.468L121.639 117.896L119.872 117.165L118.624 116.438L117.397 115.612L116.489 114.748L115.701 113.806L115.074 112.845L114.666 111.826L115.944 111.677L117.8 111.493L119.677 111.209L121.253 111.122L120.819 110.72L119.351 110.051L118.238 109.664L116.888 109.175L115.953 108.929L117.058 108.121L118.242 107.433L119.384 106.945L120.424 106.694L121.442 106.543L120.848 106.16L120.052 105.994L119.097 105.847L118.021 105.779L117.183 105.812L116.185 105.863L116.028 105.623Z" stroke="black"/>
<path d="M120.702 101.199L122.043 100.752L123.525 100.127L125.431 98.9668L127.48 97.6289L128.829 96.4049L130.361 94.804L131.129 93.8741L131.897 92.9442L132.303 92.2504L132.604 92.0537L133.583 91.8424L135.099 91.7948L136.594 91.8466L138.586 92.0019L140.437 92.3354L141.691 92.5445L143.123 92.8945L144.576 93.1451L145.968 93.4351L145.062 94.2842L144.014 95.3115L142.906 96.378L141.918 97.3659L140.849 98.4926L140.042 99.3624L139.217 100.073L138.212 100.901L137.187 101.57L136.025 102.158L135.103 102.589L134.283 102.782L133.328 102.635L132.433 102.448L131.359 102.121L130.205 101.933L128.852 101.703L127.776 101.634L126.401 101.504L125.027 101.373L123.671 101.402L122.613 101.494L121.757 101.367L120.702 101.199Z" stroke="black"/>
<path d="M83.5321 120.081L84.8098 119.932L86.3312 119.367L87.8555 118.542L88.0096 119.041L87.4956 120.491L86.7826 121.9L85.6507 123.324L83.8169 125.122L81.4466 126.756L78.5971 128.446L75.9941 129.461L73.5536 130.198L69.7962 131.025L66.0234 131.433L62.9131 131.408L59.2873 131.12L57.4156 130.886L56.6198 130.72L57.2936 129.252L58.3735 127.09L59.7575 124.472L61.0154 122.45L62.3098 120.748L64.1464 118.691L65.7182 117.151L68.272 115.14L71.0613 113.489L74.3871 112.002L76.4662 111.501L78.5634 111.159L79.8201 111.109L81.8124 111.265L83.3437 111.635L82.2173 112.542L81.1092 113.609L80.1609 114.657L79.9956 115.193L81.8785 114.392L83.5176 114.007L84.9522 114.098L83.8651 115.065L82.5973 116.15L81.8506 116.981L81.1012 118.07L82.4812 117.683L84.1231 117.039L85.5058 116.393L86.5271 115.983L86.2778 116.917L85.4681 118.045L84.5197 119.093L83.5321 120.081Z" stroke="black"/>
<path d="M103.382 120.997L102.08 121.504L102.222 125.01L102.439 128.896L102.367 131.942L101.944 134.189L101.361 136.455L100.643 138.381L99.9296 139.789L99.5626 140.543L99.5963 141.121L99.7869 141.939L100.095 142.937L100.443 143.996L101.677 146.017L103.153 147.881L104.51 149.565L105.711 151.008L106.734 152.311L108.071 154.094L108.674 151.729L109.404 148.767L109.908 146.382L110.451 144.056L110.61 142.324L110.485 140.949L110.258 139.812L109.669 138.911L108.644 137.867L107.778 136.805L106.915 135.484L105.976 133.783L105.354 132.305L104.792 130.786L104.193 128.949L103.909 127.593L103.624 126.236L103.387 124.163L103.383 122.709L103.382 120.997Z" stroke="black"/>
<path d="M111.996 115.37C112.013 115.29 112.26 114.94 112.381 114.775L115.019 116.051L117.579 117.207L120.814 118.607L122.683 119.1L125.667 119.721C126.125 119.764 127.061 119.855 127.141 119.872C127.221 119.889 128.038 119.886 128.437 119.882L129.848 120.332L131.334 121.16L132.462 121.966L133.645 123.25L134.427 124.71L135.637 127.09L136.555 128.889L137.962 131.569L139.194 133.85L137.502 133.498L135.591 133.203L133.84 132.891L131.95 132.497L130.121 132.064L128.649 131.654L127.042 130.905L125.716 130.057L125.122 129.674L124.729 129.074L124.457 128.394L124.149 127.396L123.563 126.236L122.857 125.155L121.68 123.353L120.835 122.192L119.713 120.868L118.687 119.824L117.481 118.899L116.275 117.973L115.108 117.107L113.603 116.119L111.996 115.37Z" stroke="black"/>
<path d="M110.692 93.7705L110.926 92.4181L111.524 90.5708L112.683 88.5287L113.676 87.023L115.169 85.3621L116.961 83.7632L118.569 82.5413L121.178 81.0087L124.025 79.5776L127.007 78.4862L129.246 77.9664L131.723 77.548L134.278 77.2498L136.493 77.0882L138.706 77.1856L138.49 78.6975L137.973 80.4061L137.05 82.8085L136.132 84.6932L135.092 86.9154L133.753 89.0755L132.699 90.6205L131.001 92.7578L129.105 94.8537L126.367 97.2416L123.355 99.2091L120.65 100.462L118.071 101.119L115.838 101.121L114.903 100.874L115.927 100.205L116.993 99.3375L117.923 98.1301L118.191 97.3555L116.347 98.2171L115.07 98.3662L113.771 98.6147L113.433 98.4925L113.858 97.9582L116.032 96.0238L117.122 94.7978L117.426 94.3422L116.368 94.4333L114.786 95.038L113.042 95.9203L112.078 96.5499L112.309 95.4564L113.261 94.1495L114.248 93.1616L115.275 92.2338L114.717 92.1696L113.178 92.5755L112.036 93.0643L110.692 93.7705Z" stroke="black"/>
<path d="M113.46 84.8505L113.956 83.2413L114.578 81.0356L114.919 78.9273L115.12 76.9971L115.139 75.1849L115.096 73.671L114.962 73.0724L115.408 72.4387L116.136 71.4487L117.223 70.4815L119.091 69.2617L121.178 67.9839L124.127 66.3146L125.992 65.3536L126.935 64.8234L126.8 66.1966L126.516 68.5244L126.193 70.7922L125.932 72.7618L125.572 74.7107L125.116 76.3799L124.562 77.7696L124.216 78.424L123.735 78.7388L123.153 79.0329L122.153 79.3436L121.532 79.5776L120.631 79.909L119.749 80.3998L118.526 81.0274L117.321 81.8143L116.538 82.3259L115.472 83.1937L114.848 83.6866L114.144 84.3182L113.46 84.8505Z" stroke="black"/>
<path d="M97.2961 93.524L94.6357 94.3193L93.4337 94.8474L92.1294 95.6137L90.9639 96.4608L89.9972 97.3493L88.5614 99.2298L87.2012 101.489L86.4168 103.972L86.0934 106.24L86.2253 108.81L86.664 110.666L87.2469 112.085L88.2669 113.646L89.5644 115.37L90.789 116.455L92.134 117.461L93.8195 118.331L95.6675 118.923L97.8166 119.319L100.369 119.28L102.747 118.841L104.488 118.217L106.253 117.236L107.922 115.974L109.373 114.512L110.851 112.433L111.852 110.15L112.354 108.024L112.494 106.133L112.375 104.24L112.054 102.564L111.492 101.046L110.435 99.1656L109.415 97.604L108.35 96.5002L106.767 95.3922L104.527 94.1992L102.32 93.5841L99.7913 93.2652L97.2961 93.524Z" stroke="black"/>
</g>
<rect x="856.784" width="124" height="173" rx="2" transform="rotate(33.15 856.784 0)" fill="#F2F2F2"/>
<path d="M851.216 24.8136C850.939 25.2378 850.735 25.5985 850.605 25.8955C850.475 26.1926 850.429 26.4575 850.468 26.6901C850.508 26.9227 850.626 27.1435 850.824 27.3524C851.029 27.5502 851.327 27.7767 851.718 28.0318L851.302 28.6681L845.877 25.1247L846.293 24.4884C846.683 24.7436 847.011 24.9254 847.274 25.0338C847.556 25.1384 847.808 25.1675 848.029 25.121C848.258 25.0634 848.475 24.9264 848.68 24.7099C848.892 24.4823 849.126 24.1732 849.381 23.7825L854.478 15.9794C854.755 15.5552 854.946 15.2021 855.05 14.92C855.173 14.6341 855.212 14.3804 855.165 14.159C855.13 13.9448 855.017 13.7517 854.827 13.5797C854.644 13.3965 854.385 13.1955 854.05 12.9768L854.466 12.3405L859.556 15.6653L859.141 16.3016C858.806 16.0828 858.518 15.9265 858.276 15.8326C858.035 15.7388 857.8 15.7206 857.571 15.7783C857.354 15.8432 857.135 15.995 856.916 16.2338C856.703 16.4614 856.451 16.7984 856.16 17.245L853.458 21.3809L860.936 19.0749C861.342 18.9416 861.596 18.7969 861.698 18.6406C861.902 18.328 861.686 17.9639 861.05 17.5483L861.465 16.912L865.501 19.5478L865.096 20.1673C864.873 20.0215 864.666 19.9107 864.477 19.8348C864.295 19.7477 864.091 19.6942 863.865 19.6741C863.651 19.6614 863.399 19.6804 863.111 19.7312C862.823 19.7819 862.475 19.8647 862.065 19.9795L856.544 21.5571L857.595 30.628C857.662 31.134 857.775 31.5342 857.933 31.8286C858.099 32.1118 858.388 32.3883 858.801 32.658L858.385 33.2944L853.245 29.9368L853.66 29.3005C854.096 29.5848 854.43 29.7555 854.664 29.8125C854.905 29.8583 855.076 29.803 855.178 29.6468C855.236 29.5575 855.276 29.3999 855.296 29.1741C855.316 28.9484 855.305 28.6471 855.265 28.2702L854.625 22.1188L852.594 22.7038L851.216 24.8136Z" fill="black"/>
<path d="M869.894 186.743C870.171 186.318 870.375 185.958 870.505 185.661C870.635 185.364 870.681 185.099 870.642 184.866C870.603 184.633 870.484 184.413 870.286 184.204C870.081 184.006 869.783 183.779 869.392 183.524L869.808 182.888L875.233 186.431L874.817 187.068C874.427 186.813 874.1 186.631 873.836 186.522C873.554 186.418 873.302 186.389 873.081 186.435C872.852 186.493 872.635 186.63 872.43 186.846C872.218 187.074 871.984 187.383 871.729 187.774L866.632 195.577C866.355 196.001 866.164 196.354 866.06 196.636C865.937 196.922 865.898 197.176 865.945 197.397C865.98 197.611 866.093 197.804 866.283 197.976C866.466 198.16 866.725 198.361 867.06 198.579L866.644 199.216L861.554 195.891L861.97 195.255C862.304 195.473 862.593 195.63 862.834 195.724C863.075 195.817 863.31 195.836 863.539 195.778C863.756 195.713 863.975 195.561 864.195 195.322C864.407 195.095 864.659 194.758 864.951 194.311L867.652 190.175L860.174 192.481C859.768 192.615 859.515 192.759 859.412 192.916C859.208 193.228 859.424 193.592 860.061 194.008L859.645 194.644L855.61 192.008L856.014 191.389C856.237 191.535 856.444 191.645 856.633 191.721C856.815 191.808 857.019 191.862 857.245 191.882C857.459 191.895 857.711 191.876 857.999 191.825C858.287 191.774 858.635 191.691 859.045 191.577L864.566 189.999L863.515 180.928C863.448 180.422 863.335 180.022 863.177 179.728C863.011 179.444 862.722 179.168 862.309 178.898L862.725 178.262L867.865 181.619L867.45 182.256C867.014 181.971 866.68 181.801 866.446 181.744C866.206 181.698 866.034 181.753 865.932 181.909C865.874 181.999 865.835 182.156 865.815 182.382C865.794 182.608 865.805 182.909 865.845 183.286L866.486 189.437L868.516 188.852L869.894 186.743Z" fill="black"/>
<path d="M857.997 118.235L857.475 120.613L855.598 124.795L857.227 124.453L858.053 124.138L859.029 123.771L860.005 123.404L861.104 122.849L861.877 122.282L862.339 121.78L862.69 121.139L862.544 120.441L861.915 119.762L861.258 119.333L860.445 118.936L857.997 118.235Z" fill="#A6E1E7"/>
<path d="M822.833 144.735L823.756 145.271L824.565 145.263L825.324 145.023L826.203 144.19L827.172 143.014L827.924 141.965L828.398 141.137L828.734 140.418L829.073 140.104L829.416 140.194L831.747 141.649L833.886 142.578L835.993 143.351L838.333 144.076L840.702 144.551L842.306 144.863L844.128 145.048L848.359 145.132L852.57 144.735L855.054 144.214L857.848 143.627L859.306 143.24L860.221 142.967L860.764 142.853L861.266 143.315L861.772 144.181L862.621 145.138L863.625 146.061L864.956 146.997L866.299 147.607L867.749 147.951L869.166 148.14L870.612 148.08L871.853 147.819L873.095 147.558L874.01 147.285L875.142 146.886L875.652 146.617L876.147 146.27L875.788 146.102L875.102 145.922L874.632 145.615L874.269 145.043L874.012 144.206L873.732 142.482L873.516 141.069L873.165 140.17L872.566 139.243L871.611 138.552L870.439 137.987L868.883 137.909L867.282 138.002L868.536 137.414L869.602 136.704L870.171 135.937L870.49 135.141L870.67 134.455L870.662 133.646L870.373 132.653L869.977 131.926L869.582 131.199L869.047 130.582L868.48 129.81L868.178 129.144L867.954 128.461L867.791 127.685L868.032 126.905L866.264 127.358L864.666 127.855L863.073 128.756L861.606 129.874L860.531 131.315L859.766 132.691L859.112 134.206L858.661 135.921L857.584 135.418L856.628 134.727L855.734 133.942L854.886 132.986L854.49 132.259L854.172 131.515L853.976 130.584L853.936 129.62L854.325 127.999L854.825 126.517L855.598 124.795L857.475 120.613L857.997 118.235L858.204 117.138L858.25 115.426L858.141 113.748L857.877 112.102L857.551 110.549L857.07 109.03L856.402 107.388L855.565 106.105L854.635 104.76L853.643 103.51L852.513 102.37L851.337 101.401L849.99 100.387L848.692 99.6061L847.41 98.9027L845.801 98.1869L844.115 97.4874L842.29 96.898L839.407 96.2875L836.822 95.9386L836.779 98.0542L836.726 98.9568L836.423 99.8306L836.178 100.206L835.838 100.52L835.344 100.867L834.678 101.169L833.996 101.393L833.359 101.446L832.783 101.405L832.33 101.176L831.844 100.791L831.42 100.313L831.195 99.631L831.098 99.1654L831.078 98.6834L831.119 98.1076L831.559 96.2454L829.18 96.9749L826.639 97.9943L824.534 99.165L822.634 100.536L820.861 102.124L819.246 104.083L817.93 106.304L816.801 108.647L816.154 110.971L815.814 112.825L815.506 114.834L815.357 117.215L815.421 119.065L815.657 120.96L816.211 123.599L816.883 125.646L817.695 127.582L818.645 129.408L819.779 130.953L820.44 131.787L820.791 132.685L820.86 133.4L820.655 134.74L820.531 136.467L820.534 138.411L820.737 140.151L821.014 141.471L821.478 142.913L822.095 143.918L822.833 144.735Z" fill="#A6E1E7"/>
<path d="M836.423 99.8306L836.726 98.9568L836.779 98.0542L836.822 95.9386L836.867 82.6406L836.717 81.5378L836.366 80.639L835.774 80.5202L835.235 81.0385L834.691 82.6922L831.559 96.2454L831.119 98.1076L831.078 98.6834L831.098 99.1654L831.195 99.631L831.42 100.313L831.844 100.791L832.33 101.176L832.783 101.405L833.359 101.446L833.996 101.393L834.678 101.169L835.344 100.867L835.838 100.52L836.178 100.206L836.423 99.8306Z" fill="#E2F8F0"/>
<path d="M831.559 96.2454L831.119 98.1076L831.078 98.6834L831.098 99.1654L831.195 99.631L831.42 100.313L831.844 100.791L832.33 101.176L832.783 101.405L833.359 101.446L833.996 101.393L834.678 101.169L835.344 100.867L835.838 100.52L836.178 100.206L836.423 99.8306L836.726 98.9568L836.779 98.0542L836.822 95.9386M831.559 96.2454L829.18 96.9749L826.639 97.9943L824.534 99.165L822.634 100.536L820.861 102.124L819.246 104.083L817.93 106.304L816.801 108.647L816.154 110.971L815.814 112.825L815.506 114.834L815.357 117.215L815.421 119.065L815.657 120.96L816.211 123.599L816.883 125.646L817.695 127.582L818.645 129.408L819.779 130.953L820.44 131.787L820.791 132.685L820.86 133.4L820.655 134.74L820.531 136.467L820.534 138.411L820.737 140.151L821.014 141.471L821.478 142.913L822.095 143.918L822.833 144.735L823.756 145.271L824.565 145.263L825.324 145.023L826.203 144.19L827.172 143.014L827.924 141.965L828.398 141.137L828.734 140.418L829.073 140.104L829.416 140.194L831.747 141.649L833.886 142.578L835.993 143.351L838.333 144.076L840.702 144.551L842.306 144.863L844.128 145.048L848.359 145.132L852.57 144.735L855.054 144.214L857.848 143.627L859.306 143.24L860.221 142.967L860.764 142.853L861.266 143.315L861.772 144.181L862.621 145.138L863.625 146.061L864.956 146.997L866.299 147.607L867.749 147.951L869.166 148.14L870.612 148.08L871.853 147.819L873.095 147.558L874.01 147.285L875.142 146.886L875.652 146.617L876.147 146.27L875.788 146.102L875.102 145.922L874.632 145.615L874.269 145.043L874.012 144.206L873.732 142.482L873.516 141.069L873.165 140.17L872.566 139.243L871.611 138.552L870.439 137.987L868.883 137.909L867.282 138.002L868.536 137.414L869.602 136.704L870.171 135.937L870.49 135.141L870.67 134.455L870.662 133.646L870.373 132.653L869.977 131.926L869.582 131.199L869.047 130.582L868.48 129.81L868.178 129.144L867.954 128.461L867.791 127.685L868.032 126.905L866.264 127.358L864.666 127.855L863.073 128.756L861.606 129.874L860.531 131.315L859.766 132.691L859.112 134.206L858.661 135.921L857.584 135.418L856.628 134.727L855.734 133.942L854.886 132.986L854.49 132.259L854.172 131.515L853.976 130.584L853.936 129.62L854.325 127.999L854.825 126.517L855.598 124.795M831.559 96.2454L834.691 82.6922L835.235 81.0385L835.774 80.5202L836.366 80.639L836.717 81.5378L836.867 82.6406L836.822 95.9386M836.822 95.9386L839.407 96.2875L842.29 96.898L844.115 97.4874L845.801 98.1869L847.41 98.9027L848.692 99.6061L849.99 100.387L851.337 101.401L852.513 102.37L853.643 103.51L854.635 104.76L855.565 106.105L856.402 107.388L857.07 109.03L857.551 110.549L857.877 112.102L858.141 113.748L858.25 115.426L858.204 117.138L857.997 118.235M857.997 118.235L857.475 120.613L855.598 124.795M857.997 118.235L860.445 118.936L861.258 119.333L861.915 119.762L862.544 120.441L862.69 121.139L862.339 121.78L861.877 122.282L861.104 122.849L860.005 123.404L859.029 123.771L858.053 124.138L857.227 124.453L855.598 124.795" stroke="black"/>
<path d="M863.21 93.7855L863.732 91.4072L865.61 87.2253L863.98 87.5673L863.155 87.8822L862.178 88.2491L861.202 88.616L860.103 89.1707L859.331 89.7379L858.869 90.24L858.517 90.8809L858.664 91.5794L859.292 92.2578L859.95 92.6871L860.762 93.0838L863.21 93.7855Z" fill="#A6E1E7"/>
<path d="M898.374 67.285L897.452 66.7494L896.643 66.757L895.883 66.9974L895.004 67.83L894.036 69.0056L893.283 70.0547L892.809 70.8835L892.474 71.6021L892.135 71.9163L891.792 71.8262L889.46 70.3707L887.321 69.4422L885.214 68.6688L882.874 67.9443L880.506 67.469L878.901 67.1575L877.08 66.9725L872.848 66.8879L868.637 67.2854L866.154 67.8065L863.36 68.3927L861.902 68.7797L860.987 69.0527L860.443 69.1667L859.941 68.7049L859.435 67.8387L858.587 66.8824L857.582 65.9587L856.252 65.0225L854.908 64.4131L853.459 64.069L852.042 63.8802L850.596 63.9405L849.354 64.2011L848.112 64.4616L847.197 64.7346L846.066 65.1341L845.555 65.4033L845.06 65.7501L845.42 65.9178L846.106 66.098L846.575 66.4046L846.938 66.9767L847.195 67.8141L847.476 69.5378L847.691 70.9511L848.042 71.8498L848.642 72.7773L849.597 73.4682L850.769 74.0326L852.325 74.1112L853.926 74.0184L852.671 74.6057L851.605 75.3156L851.037 76.083L850.718 76.8792L850.538 77.5652L850.545 78.3739L850.834 79.3666L851.23 80.0938L851.626 80.8211L852.16 81.4381L852.728 82.2104L853.029 82.8764L853.254 83.5586L853.416 84.3347L853.175 85.1146L854.944 84.6624L856.541 84.1652L858.134 83.2637L859.601 82.1456L860.676 80.7046L861.441 79.3288L862.096 77.814L862.546 76.099L863.624 76.602L864.579 77.2929L865.473 78.0777L866.322 79.0339L866.718 79.7612L867.036 80.5047L867.231 81.4361L867.271 82.3999L866.882 84.0211L866.383 85.5033L865.61 87.2253L863.732 91.4072L863.21 93.7855L863.003 94.8824L862.957 96.5936L863.066 98.2723L863.33 99.9184L863.656 101.471L864.137 102.99L864.806 104.632L865.642 105.915L866.572 107.26L867.564 108.51L868.695 109.65L869.87 110.619L871.217 111.633L872.515 112.414L873.797 113.117L875.406 113.833L877.092 114.533L878.918 115.122L881.801 115.732L884.386 116.081L884.428 113.966L884.482 113.063L884.784 112.189L885.03 111.814L885.369 111.5L885.863 111.153L886.529 110.851L887.212 110.627L887.849 110.574L888.425 110.615L888.878 110.844L889.363 111.229L889.788 111.707L890.012 112.389L890.11 112.855L890.13 113.337L890.089 113.912L889.648 115.775L892.028 115.045L894.569 114.026L896.673 112.855L898.573 111.484L900.347 109.896L901.961 107.937L903.278 105.716L904.407 103.373L905.054 101.049L905.394 99.1953L905.701 97.1861L905.85 94.8051L905.786 92.9549L905.55 91.0597L904.997 88.421L904.324 86.3743L903.513 84.4379L902.562 82.6116L901.428 81.067L900.767 80.2334L900.416 79.3347L900.347 78.6199L900.552 77.2804L900.676 75.5529L900.673 73.6088L900.47 71.8689L900.194 70.5495L899.729 69.1075L899.113 68.1023L898.374 67.285Z" fill="#A6E1E7"/>
<path d="M884.784 112.189L884.482 113.063L884.428 113.966L884.386 116.081L884.34 129.379L884.49 130.482L884.841 131.381L885.433 131.5L885.973 130.982L886.517 129.328L889.648 115.775L890.089 113.912L890.13 113.337L890.11 112.855L890.012 112.389L889.788 111.707L889.363 111.229L888.878 110.844L888.425 110.615L887.849 110.574L887.212 110.627L886.529 110.851L885.863 111.153L885.369 111.5L885.03 111.814L884.784 112.189Z" fill="#E2F8F0"/>
<path d="M889.648 115.775L890.089 113.912L890.13 113.337L890.11 112.855L890.012 112.389L889.788 111.707L889.363 111.229L888.878 110.844L888.425 110.615L887.849 110.574L887.212 110.627L886.529 110.851L885.863 111.153L885.369 111.5L885.03 111.814L884.784 112.189L884.482 113.063L884.428 113.966L884.386 116.081M889.648 115.775L892.028 115.045L894.569 114.026L896.673 112.855L898.573 111.484L900.347 109.896L901.961 107.937L903.278 105.716L904.407 103.373L905.054 101.049L905.394 99.1953L905.701 97.1861L905.85 94.8051L905.786 92.9549L905.55 91.0597L904.997 88.421L904.324 86.3743L903.513 84.4379L902.562 82.6116L901.428 81.067L900.767 80.2334L900.416 79.3347L900.347 78.6199L900.552 77.2804L900.676 75.5529L900.673 73.6088L900.47 71.8689L900.194 70.5495L899.729 69.1075L899.113 68.1023L898.374 67.285L897.452 66.7494L896.643 66.757L895.883 66.9974L895.004 67.83L894.036 69.0056L893.283 70.0547L892.809 70.8835L892.474 71.6021L892.135 71.9163L891.792 71.8262L889.46 70.3707L887.321 69.4422L885.214 68.6688L882.874 67.9443L880.506 67.469L878.901 67.1575L877.08 66.9725L872.848 66.8879L868.637 67.2854L866.154 67.8065L863.36 68.3927L861.902 68.7797L860.987 69.0527L860.443 69.1667L859.941 68.7049L859.435 67.8387L858.587 66.8824L857.582 65.9587L856.252 65.0225L854.908 64.4131L853.459 64.069L852.042 63.8802L850.596 63.9405L849.354 64.2011L848.112 64.4616L847.197 64.7346L846.066 65.1341L845.555 65.4033L845.06 65.7501L845.42 65.9178L846.106 66.098L846.575 66.4046L846.938 66.9767L847.195 67.8141L847.476 69.5378L847.691 70.9511L848.042 71.8498L848.642 72.7773L849.597 73.4682L850.769 74.0326L852.325 74.1112L853.926 74.0184L852.671 74.6057L851.605 75.3156L851.037 76.083L850.718 76.8792L850.538 77.5652L850.545 78.3739L850.834 79.3666L851.23 80.0938L851.626 80.8211L852.16 81.4381L852.728 82.2104L853.029 82.8764L853.254 83.5586L853.416 84.3347L853.175 85.1146L854.944 84.6624L856.541 84.1652L858.134 83.2637L859.601 82.1456L860.676 80.7046L861.441 79.3288L862.096 77.814L862.546 76.099L863.624 76.602L864.579 77.2929L865.473 78.0777L866.322 79.0339L866.718 79.7612L867.036 80.5047L867.231 81.4361L867.271 82.3999L866.882 84.0211L866.383 85.5033L865.61 87.2253M889.648 115.775L886.517 129.328L885.973 130.982L885.433 131.5L884.841 131.381L884.49 130.482L884.34 129.379L884.386 116.081M884.386 116.081L881.801 115.732L878.918 115.122L877.092 114.533L875.406 113.833L873.797 113.117L872.515 112.414L871.217 111.633L869.87 110.619L868.695 109.65L867.564 108.51L866.572 107.26L865.642 105.915L864.806 104.632L864.137 102.99L863.656 101.471L863.33 99.9184L863.066 98.2723L862.957 96.5936L863.003 94.8824L863.21 93.7855M863.21 93.7855L863.732 91.4072L865.61 87.2253M863.21 93.7855L860.762 93.0838L859.95 92.6871L859.292 92.2578L858.664 91.5794L858.517 90.8809L858.869 90.24L859.331 89.7379L860.103 89.1707L861.202 88.616L862.178 88.2491L863.155 87.8822L863.98 87.5673L865.61 87.2253" stroke="black"/>
<rect x="864.412" y="29.4674" width="77" height="132" rx="6.5" transform="rotate(33.15 864.412 29.4674)" stroke="black"/>
<path d="M873.411 38.7603L872.921 38.0966L872.255 37.5753L871.51 37.1746L870.646 36.9548L869.626 36.9761L868.506 37.2769L867.76 37.6492L866.836 38.4217L866.363 39.145L866.067 39.9837L866.026 40.817L866.064 41.5297L865.985 41.9079L865.749 42.012L865.436 41.7212L864.985 41.2549L864.103 40.6787L863.279 40.3986L862.455 40.3761L861.807 40.4689L861.218 40.6001L860.55 40.8519L859.999 41.1805L859.488 41.7065L858.957 42.3914L858.543 43.1532L858.227 44.1508L858.362 45.6147L858.753 46.5579L859.32 47.3587L860.32 48.0117L861.281 48.4674L862.42 48.5229L863.872 48.3539L863.97 48.5897L863.485 49.1329L862.221 49.5973L860.906 49.6842L860.023 49.6234L859.473 49.6943L859.316 49.9354L859.609 50.6428L862.471 52.6841L865.314 54.369L866.02 54.3146L866.178 54.0735L866.081 53.58L865.67 52.7958L865.103 51.4796L865.106 50.1913L865.382 49.5116L865.696 49.5447L866.125 50.943L866.81 52.0783L867.496 52.6982L868.495 53.3513L869.457 53.5492L870.478 53.528L871.872 53.0628L872.659 52.3725L873.19 51.6876L873.604 50.9258L873.821 50.2077L873.901 49.5718L873.922 48.8975L873.746 48.2669L873.512 47.5979L873.16 46.8521L872.572 46.2103L871.866 45.7493L871.2 45.4857L870.807 45.3155L870.749 45.0195L871.122 44.8333L871.79 44.5815L872.478 44.1708L873.127 43.5626L873.599 42.8393L873.994 41.7211L874.035 40.8878L873.801 39.7035L873.411 38.7603Z" fill="black" stroke="black"/>
<path d="M850.264 31.8365L849.98 31.4406L849.589 31.1326L849.15 30.8983L848.638 30.7745L848.031 30.798L847.361 30.9915L846.913 31.2243L846.355 31.7008L846.067 32.1428L845.882 32.6527L845.849 33.1567L845.864 33.5869L845.813 33.8163L845.671 33.8817L845.488 33.7092L845.224 33.4322L844.706 33.0933L844.218 32.9326L843.728 32.9277L843.341 32.9905L842.989 33.076L842.589 33.2351L842.258 33.4394L841.949 33.7626L841.625 34.1821L841.371 34.6468L841.173 35.2529L841.238 36.1361L841.46 36.7019L841.79 37.1799L842.378 37.564L842.945 37.8293L843.622 37.8509L844.488 37.7336L844.544 37.875L844.249 38.2083L843.492 38.5022L842.709 38.5685L842.184 38.541L841.856 38.5896L841.76 38.737L841.927 39.1614L843.608 40.3649L845.283 41.3532L845.704 41.313L845.8 41.1656L845.747 40.8684L845.511 40.3988L845.188 39.6095L845.203 38.8309L845.374 38.4173L845.561 38.4341L845.801 39.2745L846.197 39.9533L846.599 40.3208L847.187 40.7049L847.757 40.8145L848.364 40.7909L849.199 40.4953L849.674 40.0699L849.998 39.6504L850.252 39.1858L850.389 38.7496L850.443 38.3645L850.462 37.9568L850.364 37.5776L850.232 37.1758L850.03 36.7288L849.687 36.3471L849.272 36.076L848.878 35.9237L848.647 35.8249L848.615 35.6466L848.839 35.5302L849.239 35.3711L849.653 35.1157L850.045 34.7414L850.334 34.2994L850.581 33.6196L850.614 33.1156L850.487 32.4024L850.264 31.8365Z" fill="black" stroke="black"/>
<path d="M870.846 179.72L871.13 180.116L871.521 180.424L871.96 180.658L872.472 180.782L873.079 180.759L873.749 180.565L874.197 180.332L874.755 179.856L875.044 179.414L875.228 178.904L875.262 178.4L875.246 177.97L875.298 177.74L875.439 177.675L875.622 177.847L875.886 178.124L876.405 178.463L876.892 178.624L877.382 178.629L877.769 178.566L878.121 178.481L878.521 178.322L878.852 178.117L879.162 177.794L879.485 177.375L879.739 176.91L879.937 176.304L879.873 175.421L879.65 174.855L879.321 174.377L878.732 173.993L878.165 173.727L877.488 173.706L876.622 173.823L876.566 173.682L876.861 173.348L877.618 173.054L878.401 172.988L878.926 173.016L879.254 172.967L879.35 172.82L879.183 172.395L877.502 171.192L875.828 170.203L875.406 170.244L875.31 170.391L875.363 170.688L875.599 171.158L875.923 171.947L875.908 172.726L875.736 173.139L875.55 173.123L875.309 172.282L874.913 171.603L874.512 171.236L873.923 170.852L873.353 170.742L872.746 170.766L871.911 171.061L871.436 171.487L871.112 171.906L870.858 172.371L870.721 172.807L870.667 173.192L870.648 173.6L870.746 173.979L870.878 174.381L871.08 174.828L871.423 175.21L871.838 175.481L872.232 175.633L872.464 175.732L872.495 175.91L872.271 176.026L871.871 176.186L871.457 176.441L871.065 176.815L870.776 177.257L870.53 177.937L870.497 178.441L870.623 179.154L870.846 179.72Z" fill="black" stroke="black"/>
<path d="M847.699 172.796L848.189 173.46L848.855 173.981L849.601 174.382L850.464 174.601L851.485 174.58L852.604 174.279L853.351 173.907L854.275 173.134L854.747 172.411L855.043 171.572L855.084 170.739L855.046 170.026L855.125 169.648L855.361 169.544L855.674 169.835L856.125 170.301L857.007 170.877L857.831 171.158L858.656 171.18L859.303 171.087L859.893 170.956L860.56 170.704L861.111 170.376L861.622 169.85L862.153 169.165L862.567 168.403L862.883 167.405L862.748 165.941L862.357 164.998L861.79 164.197L860.79 163.544L859.829 163.089L858.691 163.033L857.238 163.202L857.14 162.966L857.625 162.423L858.889 161.959L860.204 161.872L861.087 161.933L861.637 161.862L861.795 161.621L861.502 160.913L858.64 158.872L855.797 157.187L855.09 157.242L854.932 157.483L855.029 157.976L855.44 158.76L856.007 160.077L856.005 161.365L855.728 162.045L855.414 162.011L854.985 160.613L854.3 159.478L853.615 158.858L852.615 158.205L851.653 158.007L850.632 158.028L849.238 158.493L848.451 159.184L847.92 159.869L847.507 160.63L847.289 161.348L847.21 161.984L847.189 162.659L847.364 163.289L847.598 163.958L847.95 164.704L848.538 165.346L849.244 165.807L849.911 166.07L850.303 166.241L850.361 166.537L849.988 166.723L849.32 166.975L848.632 167.385L847.983 167.994L847.511 168.717L847.116 169.835L847.075 170.668L847.309 171.853L847.699 172.796Z" fill="black" stroke="black"/>
<path d="M302.634 89.2222H313.3V85.6667H302.634V82.1111H313.3V85.6667H316.856V107H313.3V92.7778H302.634V107H299.078V85.6667H302.634V89.2222ZM323.977 103.444H334.644V107H320.422V82.1111H334.644V85.6667H338.2V103.444H334.644V85.6667H323.977V103.444ZM345.321 89.2222H355.988V92.7778H359.543V107H355.988V92.7778H345.321V107H341.766V82.1111H355.988V85.6667H359.543V89.2222H355.988V85.6667H345.321V89.2222ZM366.665 107V103.444H370.22V85.6667H366.665V82.1111H377.332V85.6667H373.776V103.444H377.332V107H366.665ZM388.009 89.2222H398.675V85.6667H388.009V82.1111H398.675V85.6667H402.231V107H398.675V92.7778H388.009V107H384.453V85.6667H388.009V89.2222ZM405.797 107V82.1111H409.352V85.6667H412.908V89.2222H416.464V92.7778H420.019V82.1111H423.575V107H420.019V96.3333H416.464V92.7778H412.908V89.2222H409.352V107H405.797ZM430.696 103.444H427.141V85.6667H430.696V82.1111H441.363V85.6667H444.918V103.444H441.363V107H430.696V103.444H441.363V85.6667H430.696V103.444ZM473.384 89.2222H484.05V92.7778H487.606V107H484.05V92.7778H473.384V107H469.828V82.1111H484.05V85.6667H487.606V89.2222H484.05V85.6667H473.384V89.2222ZM491.172 107V82.1111H508.95V85.6667H494.727V89.2222H501.839V92.7778H494.727V103.444H508.95V107H491.172ZM516.071 107V103.444H512.516V82.1111H516.071V103.444H526.738V82.1111H530.293V103.444H526.738V107H516.071ZM537.415 107V103.444H533.859V99.8889H537.415V103.444H548.082V92.7778H537.415V89.2222H533.859V85.6667H537.415V82.1111H551.637V85.6667H537.415V89.2222H548.082V92.7778H551.637V103.444H548.082V107H537.415ZM580.102 107V103.444H576.547V99.8889H580.102V103.444H590.769V92.7778H580.102V89.2222H576.547V85.6667H580.102V82.1111H594.325V85.6667H580.102V89.2222H590.769V92.7778H594.325V103.444H590.769V107H580.102ZM601.446 89.2222H612.113V85.6667H601.446V82.1111H612.113V85.6667H615.668V107H612.113V92.7778H601.446V107H597.891V85.6667H601.446V89.2222ZM626.345 107V103.444H622.79V96.3333H619.234V82.1111H622.79V96.3333H626.345V103.444H629.901V96.3333H633.457V82.1111H637.012V96.3333H633.457V103.444H629.901V107H626.345ZM644.134 107V103.444H647.689V85.6667H644.134V82.1111H654.8V85.6667H651.245V103.444H654.8V107H644.134Z" fill="#2F9BDA"/>
<path d="M360.441 140V130.667H367.108V132H361.775V133.333H364.441V134.667H361.775V140H360.441ZM369.779 140V138.667H368.445V130.667H369.779V138.667H373.779V130.667H375.112V138.667H373.779V140H369.779ZM376.449 140V130.667H377.783V138.667H383.116V140H376.449ZM384.453 140V130.667H385.786V138.667H391.12V140H384.453ZM401.794 140V138.667H400.461V137.333H401.794V138.667H405.794V134.667H401.794V133.333H400.461V132H401.794V130.667H407.128V132H401.794V133.333H405.794V134.667H407.128V138.667H405.794V140H401.794ZM411.132 140V132H408.465V130.667H415.132V132H412.465V140H411.132ZM417.802 133.333H421.802V132H417.802V130.667H421.802V132H423.135V140H421.802V134.667H417.802V140H416.469V132H417.802V133.333ZM425.806 140V138.667H424.473V132H425.806V130.667H429.806V132H431.139V133.333H429.806V132H425.806V138.667H429.806V137.333H431.139V138.667H429.806V140H425.806ZM432.477 140V130.667H433.81V133.333H436.477V132H437.81V130.667H439.143V132H437.81V133.333H436.477V134.667H437.81V136H439.143V140H437.81V136H436.477V134.667H433.81V140H432.477ZM451.151 140V130.667H452.484V140H451.151ZM465.826 140V138.667H464.492V137.333H465.826V138.667H469.826V134.667H465.826V133.333H464.492V132H465.826V130.667H471.159V132H465.826V133.333H469.826V134.667H471.159V138.667H469.826V140H465.826ZM473.829 138.667H472.496V132H473.829V130.667H477.829V132H479.163V138.667H477.829V140H473.829V138.667H477.829V132H473.829V138.667ZM480.5 140V130.667H487.167V132H481.833V133.333H484.5V134.667H481.833V140H480.5ZM491.171 140V132H488.504V130.667H495.171V132H492.504V140H491.171ZM496.508 140V130.667H497.841V137.333H499.174V136H500.508V137.333H501.841V130.667H503.174V140H501.841V138.667H500.508V137.333H499.174V138.667H497.841V140H496.508ZM505.845 133.333H509.845V132H505.845V130.667H509.845V132H511.178V140H509.845V134.667H505.845V140H504.512V132H505.845V133.333ZM513.849 133.333H517.849V134.667H519.182V140H517.849V134.667H513.849V140H512.516V130.667H517.849V132H519.182V133.333H517.849V132H513.849V133.333ZM520.52 140V130.667H527.186V132H521.853V133.333H524.52V134.667H521.853V138.667H527.186V140H520.52ZM536.527 140V130.667H543.194V132H537.861V133.333H540.527V134.667H537.861V138.667H543.194V140H536.527ZM544.531 140V130.667H545.865V132H547.198V133.333H548.531V134.667H549.865V130.667H551.198V140H549.865V136H548.531V134.667H547.198V133.333H545.865V140H544.531ZM553.868 140V138.667H552.535V132H553.868V130.667H559.202V132H553.868V138.667H557.868V134.667H556.535V133.333H559.202V138.667H557.868V140H553.868ZM561.872 140V138.667H563.206V132H561.872V130.667H565.872V132H564.539V138.667H565.872V140H561.872ZM568.543 140V130.667H569.876V132H571.21V133.333H572.543V134.667H573.876V130.667H575.21V140H573.876V136H572.543V134.667H571.21V133.333H569.876V140H568.543ZM576.547 140V130.667H583.214V132H577.88V133.333H580.547V134.667H577.88V138.667H583.214V140H576.547ZM584.551 140V130.667H591.217V132H585.884V133.333H588.551V134.667H585.884V138.667H591.217V140H584.551ZM593.888 133.333H597.888V134.667H599.221V140H597.888V134.667H593.888V140H592.555V130.667H597.888V132H599.221V133.333H597.888V132H593.888V133.333Z" fill="#2F9BDA"/>
<defs>
<clipPath id="clip0_2033_34">
<rect width="124" height="173.333" fill="white" transform="translate(0 67.8135) rotate(-33.1534)"/>
</clipPath>
</defs>
</svg>
